<svg xmlns="http://www.w3.org/2000/svg" width="360" height="295" viewBox="0 0 360 295"><path fill="#F1EBE9" d="M340.5 480.7l-.5-.1c16.3-1.9 24.5-7 24.5-19.9 0-13.3-10-21.8-26.9-21.8h-50.3v88.3h51.3c18.4 0 29.1-8.3 29.1-23.3.1-17.9-12.7-20.4-27.2-23.2zm14.5-20.3c0 7.6-3.9 11.4-10.1 13.3v-27c6.3 1.2 10 7 10.1 13.7zm-56.7 60.1l-.1-75h8.7l.1 75h-8.7zm15.6-75l23.4.3v30c-1 .1-11.1 1.1-23.4 1.1v-31.4zm23.5 75.1H314v-36.3h.5c12.5 0 15.5.4 22.9 1.3v35zm7.8-1.4v-30.7c8.3 1.3 12.7 9 12.7 15.8 0 9-4.9 13.3-12.7 14.9z"/><path fill="#9B725C" d="M269.6 439v48c0 23.5-5.1 34.3-28.8 34.9l-.1-82.7H197l-.2 47.9c0 28.5 11.3 41.8 41.5 41.8 29.8 0 40.5-11.5 40.5-38.4v-51.4l-9.2-.1zm-65.2 47.3l.3-41.3h27.6l.1 76.6c-21.6-2.1-28-15.7-28-35.3z"/><path fill="#F1EBE9" d="M225.1 603.4c-8.1-5.1-13-14-13-23.9 0-9.8 4.9-18.7 13-23.9v47.8z"/><path fill="#F1EBE9" d="M299.9 534.2c-11.4 0-21.8 4.2-29.8 11.2-8-7-18.4-11.2-29.8-11.2-25 0-45.4 20.3-45.4 45.4 0 25 20.4 45.4 45.4 45.4 11.4 0 21.8-4.2 29.8-11.2 8 7 18.4 11.2 29.8 11.2 25 0 45.4-20.4 45.4-45.4 0-25.1-20.3-45.4-45.4-45.4zM232.3 614c-15.6-3.7-27.3-17.8-27.3-34.5 0-16.8 11.7-30.8 27.3-34.5v69zm31.1-7.6c-6 5.2-13.8 8.3-22.3 8.5V544c8.5.2 16.3 3.4 22.3 8.5-5.6 7.5-8.9 16.8-8.9 26.9.1 10.2 3.4 19.5 8.9 27zm6.8-7.6c-3.6-5.5-5.7-12.1-5.7-19.2s2.1-13.7 5.7-19.2c3.6 5.5 5.7 12.1 5.7 19.2-.1 7-2.1 13.6-5.7 19.2zm31.9 16.1c-.7 0-1.4.1-2.2.1-8.8 0-16.9-3.2-23.1-8.5 5.6-7.5 8.9-16.8 8.9-26.9 0-10.1-3.3-19.4-8.9-26.9 6.2-5.3 14.3-8.5 23.1-8.5.7 0 1.4 0 2.1.1l.1 70.6zm8.9-1.7v-67.3c14.1 4.7 24.4 18 24.4 33.7 0 15.6-10.2 29-24.4 33.6z"/><path fill="#9B725C" d="M171.3 587.6c12-3.6 20.1-10.1 20.1-25.8 0-17.5-12.2-26.3-31.8-26.3h-50.9v88.4l28.4-.1v-35.6h6.4l22.5 35.6h28.2l-22.9-36.2zm-48.8 29.7l-.1-75h8.2l.1 75h-8.2zm59.7-54.9c0 9.8-4.6 16.5-13.7 18.4v-37.5c9.5 2.1 13.7 9.4 13.7 19.1zm-45 19.2v-39.4H161v39.4h-23.8zm16.9 6.7h9.5l18.2 29h-9.6l-18.1-29zM436.2 535.4L406.8 608l-29.3-72.7h-25v88.3h9.2v-63l25.5 63h22.1l24.8-61.3v61.3h28.4v-88.3l-26.3.1zm-44.1 81.5l-30.6-75h10.8l30.6 75h-10.8zm55.7.2l-.1-75h8.6l.1 75.1h-8.6z"/><path fill="#F1EBE9" d="M185.1 505.2c-6.9 11.8-20.5 17.4-32.4 17.4-1 0-2.1 0-3.2-.1l.2-76.4c1 0 2-.1 3-.1 15.6 0 23.3 6.7 30.3 19.4l7.4-3.3c-6.8-15.4-19.9-23.3-38.9-23.3-28.5 0-45.2 16.3-45.2 44.8 0 28.7 17.8 45.8 45.8 45.8 17.5 0 31.6-7.1 39.4-19.7l.1-.2-6.5-4.3zm-69.2-21.6c0-15 5.2-25 12.9-31v62.6c-8-4.1-12.9-20.9-12.9-31.6zm26.8 38.4c-1.7-.5-5-1.9-6-2.6l-.2-.3v-70.4c1.1-.5 4.5-1.8 6.2-2.2V522zM151.8 398h4.8v30.2h-4.8V419h-14.5v9.2h-4.8V398h4.8v16.7h14.5V398z"/><path fill="none" d="M103.3 663h621.6v15.8H103.3z"/><text transform="translate(103.303 674.878)" fill="#FFF" font-family="'Montserrat-Regular'" font-size="16" letter-spacing="1">DINING • CAMARADERIE • LIBATIONS</text><path fill="none" stroke="#FFF" stroke-width=".894" stroke-miterlimit="10" d="M102.5 692.9h359.9M102.5 646.4h359.9"/><path fill="#F1EBE9" d="M9.6 3.8h-9V-.4h22.7v4.2h-9v26H9.6v-26zM58.2-.5h19.2v4.2H63v12.5h12.8v4.1H63v5.1h15.1v4.2H58.2V-.5z"/><g><path fill="#F1EBE9" d="M235.6 82.2l-.5-.1c16.3-1.9 24.5-7 24.5-19.9 0-13.3-10-21.8-26.9-21.8h-50.3v88.3h51.3c18.4 0 29.1-8.3 29.1-23.3.1-17.8-12.7-20.3-27.2-23.2zM250 62c0 7.6-3.9 11.4-10.1 13.3v-27c6.4 1.2 10.1 6.9 10.1 13.7zm-56.6 60.1l-.1-75h8.7l.1 75h-8.7zm15.6-75l23.4.3v30c-1 .1-11.1 1.1-23.4 1.1V47.1zm23.5 75h-23.4V85.8h.5c12.5 0 15.5.4 22.9 1.3v35zm7.8-1.3V90.1c8.3 1.3 12.7 9 12.7 15.8 0 9-4.9 13.2-12.7 14.9z"/><path fill="#9B725C" d="M164.7 40.6v48c0 23.5-5.1 34.3-28.8 34.9l-.1-82.7H92.1l-.2 47.9c0 28.5 11.3 41.8 41.5 41.8 29.8 0 40.5-11.5 40.5-38.4V40.7l-9.2-.1zM99.5 87.9l.3-41.3h27.6l.1 76.6c-21.6-2.1-28-15.8-28-35.3z"/><path fill="#F1EBE9" d="M120.2 205c-8.1-5.1-13-14-13-23.9 0-9.8 4.9-18.7 13-23.9V205z"/><path fill="#F1EBE9" d="M195 135.7c-11.4 0-21.8 4.2-29.8 11.2-8-7-18.4-11.2-29.8-11.2-25 0-45.4 20.3-45.4 45.4 0 25 20.4 45.4 45.4 45.4 11.4 0 21.8-4.2 29.8-11.2 8 7 18.4 11.2 29.8 11.2 25 0 45.4-20.4 45.4-45.4S220 135.7 195 135.7zm-67.6 79.9c-15.6-3.7-27.3-17.8-27.3-34.5 0-16.8 11.7-30.8 27.3-34.5v69zm31.1-7.6c-6 5.2-13.8 8.3-22.3 8.5v-70.9c8.5.2 16.3 3.4 22.3 8.5-5.6 7.5-8.9 16.8-8.9 26.9.1 10.2 3.4 19.5 8.9 27zm6.8-7.7c-3.6-5.5-5.7-12.1-5.7-19.2s2.1-13.7 5.7-19.2c3.6 5.5 5.7 12.1 5.7 19.2-.1 7.1-2.2 13.7-5.7 19.2zm31.9 16.2c-.7 0-1.4.1-2.2.1-8.8 0-16.9-3.2-23.1-8.5 5.6-7.5 8.9-16.8 8.9-26.9 0-10.1-3.3-19.4-8.9-26.9 6.2-5.3 14.3-8.5 23.1-8.5.7 0 1.4 0 2.1.1l.1 70.6zm8.9-1.7v-67.3c14.1 4.7 24.4 18 24.4 33.7 0 15.6-10.3 28.9-24.4 33.6z"/><path fill="#9B725C" d="M66.4 189.2c12-3.6 20.1-10.1 20.1-25.8 0-17.5-12.2-26.3-31.8-26.3H3.8v88.4l28.4-.1v-35.6h6.4l22.5 35.6h28.2l-22.9-36.2zm-48.8 29.7l-.1-75h8.2l.1 75h-8.2zM77.3 164c0 9.8-4.6 16.5-13.7 18.4v-37.5c9.5 2.1 13.7 9.4 13.7 19.1zm-45.1 19.2v-39.4H56v39.4H32.2zm17 6.7h9.5l18.2 29h-9.6l-18.1-29zM331.3 136.9l-29.4 72.7-29.3-72.7h-25v88.3h9.2v-63l25.5 63h22.1l24.8-61.3v61.3h28.4v-88.3h-26.3zm-44.1 81.6l-30.6-75h10.8l30.6 75h-10.8zm55.7.2l-.1-75h8.6l.1 75.1h-8.6z"/><path fill="#F1EBE9" d="M80.2 106.8c-6.9 11.8-20.5 17.4-32.4 17.4-1 0-2.1 0-3.2-.1l.2-76.4c1 0 2-.1 3-.1 15.6 0 23.3 6.7 30.3 19.4l7.4-3.3c-6.8-15.4-19.9-23.3-38.9-23.3-28.5 0-45.2 16.3-45.2 44.8 0 28.7 17.8 45.8 45.8 45.8 17.5 0 31.6-7.1 39.4-19.7l.1-.2-6.5-4.3zM11 85.1c0-15 5.2-25 12.9-31v62.6c-8-4.1-12.9-20.8-12.9-31.6zm26.8 38.5c-1.7-.5-5-1.9-6-2.6l-.2-.3V50.3c1.1-.5 4.5-1.8 6.2-2.2v75.5zM46.9-.5h4.8v30.2h-4.8v-9.2H32.4v9.2h-4.8V-.5h4.8v16.7h14.5V-.5z"/><path fill="none" d="M-1.6 264.6H620v15.8H-1.6z"/><text transform="translate(-1.61 276.443)" fill="#FFF" font-family="'Montserrat-Regular'" font-size="16" letter-spacing="1">DINING • CAMARADERIE • LIBATIONS</text><path fill="none" stroke="#FFF" stroke-width=".894" stroke-miterlimit="10" d="M-2.5 294.5h360M-2.5 248h360"/></g></svg>