<svg xmlns="http://www.w3.org/2000/svg" width="357.1" height="226.9" viewBox="0 0 357.1 226.9"><path fill="#9B725C" d="M65.7 189.6c12-3.6 20.1-10.1 20.1-25.8 0-17.5-12.2-26.3-31.8-26.3H3.1v88.4l28.4-.1v-35.6H38l22.5 35.6h28.2l-23-36.2zM17 219.3l-.1-75h8.2l.1 75H17zm59.6-54.9c0 9.8-4.6 16.5-13.7 18.4v-37.5c9.6 2.1 13.7 9.4 13.7 19.1zm-45 19.2v-39.4h23.8v39.4H31.6zm17 6.7h9.5l18.2 29h-9.6l-18.1-29zM330.7 137.4L301.2 210 272 137.4h-25v88.3h9.3v-63l25.5 63h22.1l24.8-61.3v61.3h28.4v-88.3h-26.4zm-44.1 81.5l-30.6-75h10.8l30.6 75h-10.8zm55.7.2l-.1-75h8.6l.1 75.1h-8.6z"/><path fill="#F1EBE9" d="M235 82.7l-.5-.1c16.3-1.9 24.5-7 24.5-19.9 0-13.3-10-21.8-26.9-21.8h-50.3v88.3h51.3c18.4 0 29.1-8.3 29.1-23.3.1-17.9-12.7-20.4-27.2-23.2zm14.4-20.3c0 7.6-3.9 11.4-10.1 13.3v-27c6.4 1.2 10.1 7 10.1 13.7zm-56.6 60.1l-.1-75h8.7l.1 75h-8.7zm15.5-75l23.4.3v30c-1 .1-11.1 1.1-23.4 1.1V47.5zm23.6 75.1h-23.4V86.3h.5c12.5 0 15.5.4 22.9 1.3v35zm7.8-1.4V90.5c8.3 1.3 12.7 9 12.7 15.8 0 9-4.9 13.3-12.7 14.9zM79.6 107.2c-6.9 11.8-20.5 17.4-32.4 17.4-1 0-2.1 0-3.2-.1l.2-76.4c1 0 2-.1 3-.1 15.6 0 23.3 6.7 30.3 19.4l7.4-3.3C78.1 48.8 65 40.8 46 40.8 17.5 40.8.8 57.1.8 85.6c0 28.7 17.8 45.8 45.8 45.8 17.5 0 31.6-7.1 39.4-19.7l.1-.2-6.5-4.3zM10.4 85.6c0-15 5.2-25 12.9-31v62.6c-8.1-4.1-12.9-20.9-12.9-31.6zM37.1 124c-1.7-.5-5-1.9-6-2.6l-.2-.3V50.7c1.1-.5 4.5-1.8 6.2-2.2V124c.1 0 0 0 0 0z"/><g fill="#9B725C"><path d="M164.1 41v48c0 23.5-5.1 34.3-28.8 34.9l-.1-82.7H91.5L91.3 89c0 28.5 11.3 41.8 41.5 41.8 29.8 0 40.5-11.5 40.5-38.4V41h-9.2zM98.8 88.3l.3-41.3h27.6l.1 76.6c-21.5-2.1-27.9-15.7-28-35.3z"/><path d="M119.6 113.8c-13.6-4-13.6-13.9-13.6-29.7V53h13.7l-.1 60.8z"/></g><g fill="#F1EBE9"><path d="M212.6 159.8c6.4 5.3 10.1 13.2 10.1 21.7s-3.8 16.4-10.1 21.7v-43.4zM119.6 205.4c-8.1-5.1-13-14-13-23.9 0-9.8 4.9-18.7 13-23.9v47.8z"/><path d="M194.4 136.2c-11.4 0-21.8 4.2-29.8 11.2-8-7-18.4-11.2-29.8-11.2-25 0-45.4 20.3-45.4 45.4 0 25 20.4 45.4 45.4 45.4 11.4 0 21.8-4.2 29.8-11.2 8 7 18.4 11.2 29.8 11.2 25 0 45.4-20.4 45.4-45.4 0-25.1-20.4-45.4-45.4-45.4zM126.7 216c-15.6-3.7-27.3-17.8-27.3-34.5 0-16.8 11.7-30.8 27.3-34.5v69zm31.2-7.6c-6 5.2-13.8 8.3-22.3 8.5V146c8.5.2 16.3 3.4 22.3 8.5-5.6 7.5-8.9 16.8-8.9 26.9 0 10.2 3.4 19.5 8.9 27zm6.7-7.6c-3.6-5.5-5.7-12.1-5.7-19.2s2.1-13.7 5.7-19.2c3.6 5.5 5.7 12.1 5.7 19.2 0 7-2.1 13.6-5.7 19.2zm32 16.1c-.7 0-1.4.1-2.2.1-8.8 0-16.9-3.2-23.1-8.5 5.6-7.5 8.9-16.8 8.9-26.9 0-10.1-3.3-19.4-8.9-26.9 6.2-5.3 14.3-8.5 23.1-8.5.7 0 1.4 0 2.1.1l.1 70.6zm8.9-1.7v-67.3c14.1 4.7 24.4 18 24.4 33.7 0 15.6-10.3 29-24.4 33.6z"/></g><g fill="#F1EBE9"><path d="M9 4.2H0V0h22.7v4.2h-9v26H9v-26zM46.3 0H51v30.2h-4.8V21H31.7v9.2H27V0h4.8v16.7h14.5V0zM57.6 0h19.2v4.2H62.4v12.5h12.8v4.1H62.4V26h15.1v4.2H57.6V0z"/></g></svg>