<?xml version="1.0" encoding="utf-8"?>
<!-- Generator: Adobe Illustrator 18.1.0, SVG Export Plug-In . SVG Version: 6.00 Build 0)  -->
<svg version="1.1" id="Layer_1" xmlns="http://www.w3.org/2000/svg" xmlns:xlink="http://www.w3.org/1999/xlink" x="0px" y="0px"
	 width="355px" height="256px" viewBox="0 0 355 256" enable-background="new 0 0 355 256" xml:space="preserve">
<g>
	<path fill="#9F7463" d="M329.6,152.8l-29.5,73l-29.4-73l-25.1,0l0,88.7h9.3l0-63.3l25.6,63.3l22.2,0l24.9-61.6l0,61.6l27.9,0
		l0-88.7H329.6z M285.3,234.7l-30.7-75.4l10.8,0l30.7,75.4L285.3,234.7z M339.8,234.9l-0.1-75.4h8l0.1,75.4H339.8z"/>
	<path fill="#9F7463" d="M162.4,56v48.4c0,23.6-5.8,34.4-29.6,35l-0.1-83.4H89.3l0,48.4c0,28.7,11.3,42,41.7,42
		c29.9,0,40.7-11.6,40.7-38.6l0-51.8H162.4z M96.9,103.7L97,62.2l28,0.1l-0.1,77C103.3,137.1,96.9,123.4,96.9,103.7z"/>
	<path fill="#9F7463" d="M117.7,129.4c-13.7-4.1-13.7-14-13.7-29.9l0.2-31.2h13.6L117.7,129.4z"/>
	<path fill="#F1EBE9" d="M9.2,20.5h-9.6v-4.5l24.4,0v4.5h-9.6v27.9H9.2V20.5z"/>
	<path fill="#F1EBE9" d="M49.3,15.9h5.1v32.4h-5.1v-9.9H33.7v9.9h-5.1l0-32.4l5.1,0v18h15.6V15.9z"/>
	<path fill="#F1EBE9" d="M61.5,15.9l20.7,0v4.5H66.6v13.5h13.8v4.4H66.6v5.5h16.2v4.5H61.5V15.9z"/>
	<path fill="#F1EBE9" d="M78.9,120.7l-0.4,0.7c-7.3,12.5-21.6,16.9-31.5,16.9c-0.8,0-1.6,0-2.5-0.1l0.2-74.4c0.7,0,1.5,0,2.2,0
		c15.9,0,23.1,7.2,29.4,18.9l0.3,0.6l8.7-3.9l-0.3-0.7C78.1,63,64.9,55.1,45.7,55.1C31.6,55.1,20,59.2,12.1,67
		C4.2,74.8,0,86.3,0,100.4c0,14.1,4.3,25.9,12.6,34c8.1,8,19.8,12.3,33.7,12.3c17.7,0,31.9-7.1,39.8-20l0.4-0.8L78.9,120.7z
		 M9.6,100.4c0-13.7,4.2-23.8,12.3-29.9v60C13.9,124,9.6,113.7,9.6,100.4z M37.3,137.4c-2.6-0.5-5.1-1.3-7.3-2.2V66.1
		c2.3-0.8,4.7-1.5,7.3-1.9V137.4z"/>
	<path fill="#9F7463" d="M64.9,205.1c12.1-3.6,20.2-10.2,20.2-25.9c0-17.6-12.3-26.4-31.9-26.4l-51.1,0l0,88.8l27.9,0l0-0.9h0.1V206
		l0-0.3H37l22.6,35.8H88L64.9,205.1z M13.9,159.6l7.9,0V235l-7.9,0L13.9,159.6z M75.8,179.8c0,9.8-4.6,16.6-13.8,18.5l0-37.7
		C71.7,162.7,75.8,170,75.8,179.8z M30.1,199.1l0-39.6l24.4,0v39.6L30.1,199.1z M47.6,205.8h9.6l18.2,29.1l-9.6,0L47.6,205.8z"/>
	<path fill="#F1EBE9" d="M104.2,196.9c0,10.2,5.1,19.4,13.5,24.7v-49.3C109.3,177.5,104.2,186.7,104.2,196.9z"/>
	<path fill="#F1EBE9" d="M210.7,172.2v49.3c8.4-5.3,13.5-14.5,13.5-24.7C224.2,186.7,219.1,177.5,210.7,172.2z"/>
	<path fill="#F1EBE9" d="M194.9,150.8c-10.5,0-20.8,3.7-29,10.3l-0.6,0.5c-0.2,0.2-0.4,0.3-0.6,0.5l-0.5,0.4l-0.5-0.4
		c-0.1-0.1-0.3-0.2-0.4-0.4l-0.8-0.7c-8.2-6.7-18.5-10.3-29-10.3c-25.4,0-46.1,20.7-46.1,46.1c0,25.4,20.7,46.1,46.1,46.1
		c10.5,0,20.8-3.7,29-10.3l0.6-0.5c0.2-0.2,0.4-0.3,0.6-0.5l0.5-0.5l0.5,0.5c0.1,0.1,0.3,0.2,0.4,0.4l0.8,0.7
		c8.2,6.7,18.5,10.3,29,10.3c25.4,0,46.1-20.7,46.1-46.1C241,171.5,220.3,150.8,194.9,150.8z M96,196.9c0-17.4,11.8-32.4,28.8-36.4
		l0.5-0.1v73l-0.5-0.1C107.9,229.3,96,214.3,96,196.9z M157.7,225.2c-6.5,5.6-14.9,8.8-23.5,9l-0.8,0v-74.8l0.8,0
		c8.6,0.2,17,3.4,23.5,9l0.6,0.5l-0.4,0.6c-5.9,8-9,17.4-9,27.3c0,9.9,3.1,19.4,9,27.3l0.4,0.6L157.7,225.2z M164.2,218.1
		c0,0-2.9-4.9-3.3-5.8c-2.2-4.9-3.4-10.2-3.4-15.5c0-5.7,1.2-11.3,3.8-16.4c0.9-1.7,2.9-4.9,2.9-4.9s2.1,3.5,2.9,5
		c2.6,5,3.8,10.7,3.8,16.3c0,5.4-1.3,10.7-3.4,15.6C166.6,214.3,164.2,218.1,164.2,218.1z M194.9,234.3l-0.8,0
		c-8.6-0.2-16.9-3.4-23.5-9l-0.6-0.5l0.4-0.6c5.9-8,9-17.4,9-27.3c0-9.9-3.1-19.3-9-27.3l-0.4-0.6l0.6-0.5c6.5-5.6,14.9-8.8,23.5-9
		l0.8,0V234.3z M203.5,233.3l-0.6,0.1v-73.1l0.6,0.1c17,4,28.8,19,28.8,36.4C232.3,214.3,220.5,229.3,203.5,233.3z"/>
	<path fill="#F1EBE9" d="M244.7,101.8c-4.2-1.9-12.9-3.9-12.9-3.9c14,0,22.3-9.6,22.3-19.9c0-13.4-8.6-22-27.1-22l-49.6,0l0,89.1
		h50.6c18.5,0,29.4-8.3,29.4-23.4C257.4,109.8,251.8,105.1,244.7,101.8z M246,77.4c0,7.7-5.5,11.8-11.8,13.7l0-27.6
		C240.6,64.8,246,69.2,246,77.4z M226.5,62.6l0,30.4c-1,0.1-11.2,1.3-23.3,1.3V68.7l0-6L226.5,62.6z M187.2,62.7l8.1,0v75.7h-8.1
		L187.2,62.7z M226.7,138l-23.4,0.2v-36.4c1.6,0,14-0.2,23.4,2.2L226.7,138z M248.4,122c-0.4,10.3-8.3,15-13.9,15.1l0-30.6
		C242.9,107.8,248.8,113.6,248.4,122z"/>
</g>
</svg>
